<?xml version="1.0" encoding="UTF-8" standalone="no"?>
<!DOCTYPE svg PUBLIC "-//W3C//DTD SVG 1.1//EN"
 "http://www.w3.org/Graphics/SVG/1.1/DTD/svg11.dtd">
<!-- Generated by graphviz version 10.0.1 (20240210.2158)
 -->
<!-- Pages: 1 -->
<svg width="1873pt" height="476pt"
 viewBox="0.00 0.00 1873.22 476.00" xmlns="http://www.w3.org/2000/svg" xmlns:xlink="http://www.w3.org/1999/xlink">
<g id="graph0" class="graph" transform="scale(1 1) rotate(0) translate(4 472)">
<polygon fill="white" stroke="none" points="-4,4 -4,-472 1869.22,-472 1869.22,4 -4,4"/>
<!-- [root] aws_instance.example (expand) -->
<g id="node1" class="node">
<title>[root] aws_instance.example (expand)</title>
<polygon fill="none" stroke="black" points="460.97,-252 322.72,-252 322.72,-216 460.97,-216 460.97,-252"/>
<text text-anchor="middle" x="391.85" y="-228.95" font-family="Times,serif" font-size="14.00">aws_instance.example</text>
</g>
<!-- [root] provider[&quot;registry.terraform.io/hashicorp/aws&quot;] -->
<g id="node8" class="node">
<title>[root] provider[&quot;registry.terraform.io/hashicorp/aws&quot;]</title>
<polygon fill="none" stroke="black" points="954.85,-36 690.42,-18 954.85,0 1219.28,-18 954.85,-36"/>
<text text-anchor="middle" x="954.85" y="-12.95" font-family="Times,serif" font-size="14.00">provider[&quot;registry.terraform.io/hashicorp/aws&quot;]</text>
</g>
<!-- [root] aws_instance.example (expand)&#45;&gt;[root] provider[&quot;registry.terraform.io/hashicorp/aws&quot;] -->
<g id="edge1" class="edge">
<title>[root] aws_instance.example (expand)&#45;&gt;[root] provider[&quot;registry.terraform.io/hashicorp/aws&quot;]</title>
<path fill="none" stroke="black" d="M360.74,-215.67C348.07,-206.81 334.78,-194.75 327.85,-180 321.04,-165.52 317.7,-156.37 327.85,-144 386.77,-72.17 636.74,-40.83 802.71,-27.74"/>
<polygon fill="black" stroke="black" points="802.8,-31.25 812.5,-26.99 802.26,-24.27 802.8,-31.25"/>
</g>
<!-- [root] var.ami_id -->
<g id="node10" class="node">
<title>[root] var.ami_id</title>
<polygon fill="none" stroke="black" points="534.1,-180 465.6,-180 465.6,-144 540.1,-144 540.1,-174 534.1,-180"/>
<polyline fill="none" stroke="black" points="534.1,-180 534.1,-174"/>
<polyline fill="none" stroke="black" points="540.1,-174 534.1,-174"/>
<text text-anchor="middle" x="502.85" y="-156.95" font-family="Times,serif" font-size="14.00">var.ami_id</text>
</g>
<!-- [root] aws_instance.example (expand)&#45;&gt;[root] var.ami_id -->
<g id="edge2" class="edge">
<title>[root] aws_instance.example (expand)&#45;&gt;[root] var.ami_id</title>
<path fill="none" stroke="black" d="M419.57,-215.52C433.58,-206.68 450.78,-195.84 465.9,-186.3"/>
<polygon fill="black" stroke="black" points="467.6,-189.36 474.2,-181.07 463.87,-183.44 467.6,-189.36"/>
</g>
<!-- [root] var.instance_type -->
<g id="node13" class="node">
<title>[root] var.instance_type</title>
<polygon fill="none" stroke="black" points="441.1,-180 336.6,-180 336.6,-144 447.1,-144 447.1,-174 441.1,-180"/>
<polyline fill="none" stroke="black" points="441.1,-180 441.1,-174"/>
<polyline fill="none" stroke="black" points="447.1,-174 441.1,-174"/>
<text text-anchor="middle" x="391.85" y="-156.95" font-family="Times,serif" font-size="14.00">var.instance_type</text>
</g>
<!-- [root] aws_instance.example (expand)&#45;&gt;[root] var.instance_type -->
<g id="edge3" class="edge">
<title>[root] aws_instance.example (expand)&#45;&gt;[root] var.instance_type</title>
<path fill="none" stroke="black" d="M391.85,-215.7C391.85,-208.41 391.85,-199.73 391.85,-191.54"/>
<polygon fill="black" stroke="black" points="395.35,-191.62 391.85,-181.62 388.35,-191.62 395.35,-191.62"/>
</g>
<!-- [root] var.tags -->
<g id="node15" class="node">
<title>[root] var.tags</title>
<polygon fill="none" stroke="black" points="274.85,-180 222.85,-180 222.85,-144 280.85,-144 280.85,-174 274.85,-180"/>
<polyline fill="none" stroke="black" points="274.85,-180 274.85,-174"/>
<polyline fill="none" stroke="black" points="280.85,-174 274.85,-174"/>
<text text-anchor="middle" x="251.85" y="-156.95" font-family="Times,serif" font-size="14.00">var.tags</text>
</g>
<!-- [root] aws_instance.example (expand)&#45;&gt;[root] var.tags -->
<g id="edge4" class="edge">
<title>[root] aws_instance.example (expand)&#45;&gt;[root] var.tags</title>
<path fill="none" stroke="black" d="M356.88,-215.52C336.93,-205.54 311.86,-193 291.21,-182.68"/>
<polygon fill="black" stroke="black" points="293.04,-179.68 282.53,-178.34 289.91,-185.94 293.04,-179.68"/>
</g>
<!-- [root] aws_instance.example2 (expand) -->
<g id="node2" class="node">
<title>[root] aws_instance.example2 (expand)</title>
<polygon fill="none" stroke="black" points="773.35,-252 628.35,-252 628.35,-216 773.35,-216 773.35,-252"/>
<text text-anchor="middle" x="700.85" y="-228.95" font-family="Times,serif" font-size="14.00">aws_instance.example2</text>
</g>
<!-- [root] aws_instance.example2 (expand)&#45;&gt;[root] provider[&quot;registry.terraform.io/hashicorp/aws&quot;] -->
<g id="edge6" class="edge">
<title>[root] aws_instance.example2 (expand)&#45;&gt;[root] provider[&quot;registry.terraform.io/hashicorp/aws&quot;]</title>
<path fill="none" stroke="black" d="M773.51,-218.36C800.44,-210.32 829.97,-198.15 852.85,-180 898.1,-144.09 929.07,-82.27 944.19,-46.59"/>
<polygon fill="black" stroke="black" points="947.41,-47.97 947.97,-37.39 940.94,-45.31 947.41,-47.97"/>
</g>
<!-- [root] aws_instance.example2 (expand)&#45;&gt;[root] var.ami_id -->
<g id="edge7" class="edge">
<title>[root] aws_instance.example2 (expand)&#45;&gt;[root] var.ami_id</title>
<path fill="none" stroke="black" d="M650.1,-215.57C623.06,-206.22 588.98,-194.34 551.23,-180.83"/>
<polygon fill="black" stroke="black" points="552.5,-177.57 541.91,-177.48 550.14,-184.16 552.5,-177.57"/>
</g>
<!-- [root] aws_instance.example2 (expand)&#45;&gt;[root] var.instance_type -->
<g id="edge8" class="edge">
<title>[root] aws_instance.example2 (expand)&#45;&gt;[root] var.instance_type</title>
<path fill="none" stroke="black" d="M628.06,-218.02C582.12,-208.38 521.27,-195.25 458.41,-180.32"/>
<polygon fill="black" stroke="black" points="459.49,-176.98 448.95,-178.06 457.86,-183.79 459.49,-176.98"/>
</g>
<!-- [root] local.common_tags (expand) -->
<g id="node16" class="node">
<title>[root] local.common_tags (expand)</title>
<ellipse fill="none" stroke="black" cx="700.85" cy="-162" rx="142.97" ry="18"/>
<text text-anchor="middle" x="700.85" y="-156.95" font-family="Times,serif" font-size="14.00">[root] local.common_tags (expand)</text>
</g>
<!-- [root] aws_instance.example2 (expand)&#45;&gt;[root] local.common_tags (expand) -->
<g id="edge5" class="edge">
<title>[root] aws_instance.example2 (expand)&#45;&gt;[root] local.common_tags (expand)</title>
<path fill="none" stroke="black" d="M700.85,-215.7C700.85,-208.41 700.85,-199.73 700.85,-191.54"/>
<polygon fill="black" stroke="black" points="704.35,-191.62 700.85,-181.62 697.35,-191.62 704.35,-191.62"/>
</g>
<!-- [root] aws_instance.foo (expand) -->
<g id="node3" class="node">
<title>[root] aws_instance.foo (expand)</title>
<polygon fill="none" stroke="black" points="1246.72,-324 1136.97,-324 1136.97,-288 1246.72,-288 1246.72,-324"/>
<text text-anchor="middle" x="1191.85" y="-300.95" font-family="Times,serif" font-size="14.00">aws_instance.foo</text>
</g>
<!-- [root] aws_network_interface.foo (expand) -->
<g id="node4" class="node">
<title>[root] aws_network_interface.foo (expand)</title>
<polygon fill="none" stroke="black" points="1218.72,-252 1054.97,-252 1054.97,-216 1218.72,-216 1218.72,-252"/>
<text text-anchor="middle" x="1136.85" y="-228.95" font-family="Times,serif" font-size="14.00">aws_network_interface.foo</text>
</g>
<!-- [root] aws_instance.foo (expand)&#45;&gt;[root] aws_network_interface.foo (expand) -->
<g id="edge9" class="edge">
<title>[root] aws_instance.foo (expand)&#45;&gt;[root] aws_network_interface.foo (expand)</title>
<path fill="none" stroke="black" d="M1178.25,-287.7C1171.92,-279.64 1164.26,-269.89 1157.26,-260.98"/>
<polygon fill="black" stroke="black" points="1160.15,-259 1151.22,-253.29 1154.65,-263.32 1160.15,-259"/>
</g>
<!-- [root] provider[&quot;registry.terraform.io/hashicorp/aws&quot;].frankfurt -->
<g id="node9" class="node">
<title>[root] provider[&quot;registry.terraform.io/hashicorp/aws&quot;].frankfurt</title>
<polygon fill="none" stroke="black" points="1550.85,-252 1236.47,-234 1550.85,-216 1865.22,-234 1550.85,-252"/>
<text text-anchor="middle" x="1550.85" y="-228.95" font-family="Times,serif" font-size="14.00">provider[&quot;registry.terraform.io/hashicorp/aws&quot;].frankfurt</text>
</g>
<!-- [root] aws_instance.foo (expand)&#45;&gt;[root] provider[&quot;registry.terraform.io/hashicorp/aws&quot;].frankfurt -->
<g id="edge10" class="edge">
<title>[root] aws_instance.foo (expand)&#45;&gt;[root] provider[&quot;registry.terraform.io/hashicorp/aws&quot;].frankfurt</title>
<path fill="none" stroke="black" d="M1247.15,-294.22C1306.87,-282.57 1402.55,-263.92 1470.54,-250.66"/>
<polygon fill="black" stroke="black" points="1471,-254.14 1480.14,-248.79 1469.66,-247.26 1471,-254.14"/>
</g>
<!-- [root] aws_subnet.my_subnet (expand) -->
<g id="node6" class="node">
<title>[root] aws_subnet.my_subnet (expand)</title>
<polygon fill="none" stroke="black" points="1208.22,-180 1065.47,-180 1065.47,-144 1208.22,-144 1208.22,-180"/>
<text text-anchor="middle" x="1136.85" y="-156.95" font-family="Times,serif" font-size="14.00">aws_subnet.my_subnet</text>
</g>
<!-- [root] aws_network_interface.foo (expand)&#45;&gt;[root] aws_subnet.my_subnet (expand) -->
<g id="edge11" class="edge">
<title>[root] aws_network_interface.foo (expand)&#45;&gt;[root] aws_subnet.my_subnet (expand)</title>
<path fill="none" stroke="black" d="M1136.85,-215.7C1136.85,-208.41 1136.85,-199.73 1136.85,-191.54"/>
<polygon fill="black" stroke="black" points="1140.35,-191.62 1136.85,-181.62 1133.35,-191.62 1140.35,-191.62"/>
</g>
<!-- [root] aws_s3_bucket.sample_s3_bucket (expand) -->
<g id="node5" class="node">
<title>[root] aws_s3_bucket.sample_s3_bucket (expand)</title>
<polygon fill="none" stroke="black" points="1037.22,-252 834.47,-252 834.47,-216 1037.22,-216 1037.22,-252"/>
<text text-anchor="middle" x="935.85" y="-228.95" font-family="Times,serif" font-size="14.00">aws_s3_bucket.sample_s3_bucket</text>
</g>
<!-- [root] aws_s3_bucket.sample_s3_bucket (expand)&#45;&gt;[root] provider[&quot;registry.terraform.io/hashicorp/aws&quot;] -->
<g id="edge12" class="edge">
<title>[root] aws_s3_bucket.sample_s3_bucket (expand)&#45;&gt;[root] provider[&quot;registry.terraform.io/hashicorp/aws&quot;]</title>
<path fill="none" stroke="black" d="M979.33,-215.51C994.3,-207.13 1009.42,-195.48 1017.85,-180 1042.9,-133.98 1004.48,-75.85 977.51,-43.53"/>
<polygon fill="black" stroke="black" points="980.44,-41.56 971.26,-36.28 975.14,-46.13 980.44,-41.56"/>
</g>
<!-- [root] var.bucket_name -->
<g id="node11" class="node">
<title>[root] var.bucket_name</title>
<polygon fill="none" stroke="black" points="1003.35,-180 900.35,-180 900.35,-144 1009.35,-144 1009.35,-174 1003.35,-180"/>
<polyline fill="none" stroke="black" points="1003.35,-180 1003.35,-174"/>
<polyline fill="none" stroke="black" points="1009.35,-174 1003.35,-174"/>
<text text-anchor="middle" x="954.85" y="-156.95" font-family="Times,serif" font-size="14.00">var.bucket_name</text>
</g>
<!-- [root] aws_s3_bucket.sample_s3_bucket (expand)&#45;&gt;[root] var.bucket_name -->
<g id="edge13" class="edge">
<title>[root] aws_s3_bucket.sample_s3_bucket (expand)&#45;&gt;[root] var.bucket_name</title>
<path fill="none" stroke="black" d="M940.54,-215.7C942.57,-208.24 944.99,-199.32 947.26,-190.97"/>
<polygon fill="black" stroke="black" points="950.57,-192.13 949.81,-181.57 943.81,-190.3 950.57,-192.13"/>
</g>
<!-- [root] aws_vpc.my_vpc (expand) -->
<g id="node7" class="node">
<title>[root] aws_vpc.my_vpc (expand)</title>
<polygon fill="none" stroke="black" points="1184.47,-108 1073.22,-108 1073.22,-72 1184.47,-72 1184.47,-108"/>
<text text-anchor="middle" x="1128.85" y="-84.95" font-family="Times,serif" font-size="14.00">aws_vpc.my_vpc</text>
</g>
<!-- [root] aws_subnet.my_subnet (expand)&#45;&gt;[root] aws_vpc.my_vpc (expand) -->
<g id="edge14" class="edge">
<title>[root] aws_subnet.my_subnet (expand)&#45;&gt;[root] aws_vpc.my_vpc (expand)</title>
<path fill="none" stroke="black" d="M1134.87,-143.7C1134.04,-136.41 1133.04,-127.73 1132.11,-119.54"/>
<polygon fill="black" stroke="black" points="1135.59,-119.15 1130.97,-109.61 1128.63,-119.94 1135.59,-119.15"/>
</g>
<!-- [root] aws_vpc.my_vpc (expand)&#45;&gt;[root] provider[&quot;registry.terraform.io/hashicorp/aws&quot;] -->
<g id="edge15" class="edge">
<title>[root] aws_vpc.my_vpc (expand)&#45;&gt;[root] provider[&quot;registry.terraform.io/hashicorp/aws&quot;]</title>
<path fill="none" stroke="black" d="M1085.39,-71.52C1060.09,-61.34 1028.16,-48.49 1002.22,-38.06"/>
<polygon fill="black" stroke="black" points="1003.86,-34.94 993.27,-34.46 1001.24,-41.44 1003.86,-34.94"/>
</g>
<!-- [root] var.environment -->
<g id="node12" class="node">
<title>[root] var.environment</title>
<polygon fill="none" stroke="black" points="1476.47,-396 1377.22,-396 1377.22,-360 1482.47,-360 1482.47,-390 1476.47,-396"/>
<polyline fill="none" stroke="black" points="1476.47,-396 1476.47,-390"/>
<polyline fill="none" stroke="black" points="1482.47,-390 1476.47,-390"/>
<text text-anchor="middle" x="1429.85" y="-372.95" font-family="Times,serif" font-size="14.00">var.environment</text>
</g>
<!-- [root] var.region -->
<g id="node14" class="node">
<title>[root] var.region</title>
<polygon fill="none" stroke="black" points="1565.22,-396 1500.47,-396 1500.47,-360 1571.22,-360 1571.22,-390 1565.22,-396"/>
<polyline fill="none" stroke="black" points="1565.22,-396 1565.22,-390"/>
<polyline fill="none" stroke="black" points="1571.22,-390 1565.22,-390"/>
<text text-anchor="middle" x="1535.85" y="-372.95" font-family="Times,serif" font-size="14.00">var.region</text>
</g>
<!-- [root] output.instance_id (expand) -->
<g id="node17" class="node">
<title>[root] output.instance_id (expand)</title>
<ellipse fill="none" stroke="black" cx="137.85" cy="-306" rx="137.85" ry="18"/>
<text text-anchor="middle" x="137.85" y="-300.95" font-family="Times,serif" font-size="14.00">[root] output.instance_id (expand)</text>
</g>
<!-- [root] output.instance_id (expand)&#45;&gt;[root] aws_instance.example (expand) -->
<g id="edge16" class="edge">
<title>[root] output.instance_id (expand)&#45;&gt;[root] aws_instance.example (expand)</title>
<path fill="none" stroke="black" d="M195.17,-289.2C231.33,-279.24 278.42,-266.26 317.45,-255.5"/>
<polygon fill="black" stroke="black" points="318.33,-258.89 327.04,-252.86 316.47,-252.14 318.33,-258.89"/>
</g>
<!-- [root] output.instance_public_ip (expand) -->
<g id="node18" class="node">
<title>[root] output.instance_public_ip (expand)</title>
<ellipse fill="none" stroke="black" cx="458.85" cy="-306" rx="165.48" ry="18"/>
<text text-anchor="middle" x="458.85" y="-300.95" font-family="Times,serif" font-size="14.00">[root] output.instance_public_ip (expand)</text>
</g>
<!-- [root] output.instance_public_ip (expand)&#45;&gt;[root] aws_instance.example (expand) -->
<g id="edge17" class="edge">
<title>[root] output.instance_public_ip (expand)&#45;&gt;[root] aws_instance.example (expand)</title>
<path fill="none" stroke="black" d="M442.29,-287.7C434.42,-279.47 424.85,-269.48 416.18,-260.42"/>
<polygon fill="black" stroke="black" points="418.71,-258 409.26,-253.2 413.65,-262.84 418.71,-258"/>
</g>
<!-- [root] provider[&quot;registry.terraform.io/hashicorp/aws&quot;] (close) -->
<g id="node19" class="node">
<title>[root] provider[&quot;registry.terraform.io/hashicorp/aws&quot;] (close)</title>
<ellipse fill="none" stroke="black" cx="880.85" cy="-306" rx="238.16" ry="18"/>
<text text-anchor="middle" x="880.85" y="-300.95" font-family="Times,serif" font-size="14.00">[root] provider[&quot;registry.terraform.io/hashicorp/aws&quot;] (close)</text>
</g>
<!-- [root] provider[&quot;registry.terraform.io/hashicorp/aws&quot;] (close)&#45;&gt;[root] aws_instance.example (expand) -->
<g id="edge18" class="edge">
<title>[root] provider[&quot;registry.terraform.io/hashicorp/aws&quot;] (close)&#45;&gt;[root] aws_instance.example (expand)</title>
<path fill="none" stroke="black" d="M772.93,-289.55C682.27,-276.57 554.72,-258.31 472.66,-246.57"/>
<polygon fill="black" stroke="black" points="473.29,-243.12 462.89,-245.17 472.29,-250.05 473.29,-243.12"/>
</g>
<!-- [root] provider[&quot;registry.terraform.io/hashicorp/aws&quot;] (close)&#45;&gt;[root] aws_instance.example2 (expand) -->
<g id="edge19" class="edge">
<title>[root] provider[&quot;registry.terraform.io/hashicorp/aws&quot;] (close)&#45;&gt;[root] aws_instance.example2 (expand)</title>
<path fill="none" stroke="black" d="M836.81,-287.88C812.48,-278.41 782.02,-266.57 756.1,-256.49"/>
<polygon fill="black" stroke="black" points="757.68,-253.34 747.09,-252.98 755.14,-259.87 757.68,-253.34"/>
</g>
<!-- [root] provider[&quot;registry.terraform.io/hashicorp/aws&quot;] (close)&#45;&gt;[root] aws_network_interface.foo (expand) -->
<g id="edge20" class="edge">
<title>[root] provider[&quot;registry.terraform.io/hashicorp/aws&quot;] (close)&#45;&gt;[root] aws_network_interface.foo (expand)</title>
<path fill="none" stroke="black" d="M942.49,-288.14C978.44,-278.31 1024.05,-265.84 1062.05,-255.45"/>
<polygon fill="black" stroke="black" points="1062.88,-258.85 1071.6,-252.84 1061.04,-252.1 1062.88,-258.85"/>
</g>
<!-- [root] provider[&quot;registry.terraform.io/hashicorp/aws&quot;] (close)&#45;&gt;[root] aws_s3_bucket.sample_s3_bucket (expand) -->
<g id="edge21" class="edge">
<title>[root] provider[&quot;registry.terraform.io/hashicorp/aws&quot;] (close)&#45;&gt;[root] aws_s3_bucket.sample_s3_bucket (expand)</title>
<path fill="none" stroke="black" d="M894.44,-287.7C900.77,-279.64 908.43,-269.89 915.43,-260.98"/>
<polygon fill="black" stroke="black" points="918.05,-263.32 921.47,-253.29 912.54,-259 918.05,-263.32"/>
</g>
<!-- [root] provider[&quot;registry.terraform.io/hashicorp/aws&quot;].frankfurt (close) -->
<g id="node20" class="node">
<title>[root] provider[&quot;registry.terraform.io/hashicorp/aws&quot;].frankfurt (close)</title>
<ellipse fill="none" stroke="black" cx="1085.85" cy="-378" rx="273.48" ry="18"/>
<text text-anchor="middle" x="1085.85" y="-372.95" font-family="Times,serif" font-size="14.00">[root] provider[&quot;registry.terraform.io/hashicorp/aws&quot;].frankfurt (close)</text>
</g>
<!-- [root] provider[&quot;registry.terraform.io/hashicorp/aws&quot;].frankfurt (close)&#45;&gt;[root] aws_instance.foo (expand) -->
<g id="edge22" class="edge">
<title>[root] provider[&quot;registry.terraform.io/hashicorp/aws&quot;].frankfurt (close)&#45;&gt;[root] aws_instance.foo (expand)</title>
<path fill="none" stroke="black" d="M1112.05,-359.7C1125.3,-350.95 1141.58,-340.19 1155.98,-330.69"/>
<polygon fill="black" stroke="black" points="1157.9,-333.61 1164.32,-325.18 1154.04,-327.77 1157.9,-333.61"/>
</g>
<!-- [root] root -->
<g id="node21" class="node">
<title>[root] root</title>
<ellipse fill="none" stroke="black" cx="934.85" cy="-450" rx="49.3" ry="18"/>
<text text-anchor="middle" x="934.85" y="-444.95" font-family="Times,serif" font-size="14.00">[root] root</text>
</g>
<!-- [root] root&#45;&gt;[root] var.environment -->
<g id="edge27" class="edge">
<title>[root] root&#45;&gt;[root] var.environment</title>
<path fill="none" stroke="black" d="M982.94,-445.42C1061.2,-439.09 1221.07,-424.08 1365.6,-396.27"/>
<polygon fill="black" stroke="black" points="1366.24,-399.71 1375.38,-394.36 1364.9,-392.84 1366.24,-399.71"/>
</g>
<!-- [root] root&#45;&gt;[root] var.region -->
<g id="edge28" class="edge">
<title>[root] root&#45;&gt;[root] var.region</title>
<path fill="none" stroke="black" d="M984.38,-448.8C1080.68,-447.45 1299.65,-439.65 1489.09,-396.3"/>
<polygon fill="black" stroke="black" points="1489.67,-399.76 1498.61,-394.08 1488.08,-392.94 1489.67,-399.76"/>
</g>
<!-- [root] root&#45;&gt;[root] output.instance_id (expand) -->
<g id="edge23" class="edge">
<title>[root] root&#45;&gt;[root] output.instance_id (expand)</title>
<path fill="none" stroke="black" d="M891.42,-441.28C833.39,-430.97 727.38,-412.12 636.85,-396 493.99,-370.56 328.14,-340.96 228.18,-323.13"/>
<polygon fill="black" stroke="black" points="228.87,-319.69 218.41,-321.38 227.64,-326.58 228.87,-319.69"/>
</g>
<!-- [root] root&#45;&gt;[root] output.instance_public_ip (expand) -->
<g id="edge24" class="edge">
<title>[root] root&#45;&gt;[root] output.instance_public_ip (expand)</title>
<path fill="none" stroke="black" d="M897.5,-437.86C817.01,-413.85 626.32,-356.96 524.92,-326.71"/>
<polygon fill="black" stroke="black" points="525.93,-323.36 515.35,-323.86 523.93,-330.07 525.93,-323.36"/>
</g>
<!-- [root] root&#45;&gt;[root] provider[&quot;registry.terraform.io/hashicorp/aws&quot;] (close) -->
<g id="edge25" class="edge">
<title>[root] root&#45;&gt;[root] provider[&quot;registry.terraform.io/hashicorp/aws&quot;] (close)</title>
<path fill="none" stroke="black" d="M888.42,-443.36C858.83,-437.09 822.64,-423.87 803.85,-396 794.9,-382.73 796.4,-374.16 803.85,-360 810.22,-347.88 820.75,-337.99 832.02,-330.18"/>
<polygon fill="black" stroke="black" points="833.74,-333.24 840.3,-324.92 829.98,-327.33 833.74,-333.24"/>
</g>
<!-- [root] root&#45;&gt;[root] provider[&quot;registry.terraform.io/hashicorp/aws&quot;].frankfurt (close) -->
<g id="edge26" class="edge">
<title>[root] root&#45;&gt;[root] provider[&quot;registry.terraform.io/hashicorp/aws&quot;].frankfurt (close)</title>
<path fill="none" stroke="black" d="M964.32,-435.34C985.33,-425.6 1014.03,-412.29 1038.26,-401.06"/>
<polygon fill="black" stroke="black" points="1039.71,-404.25 1047.31,-396.86 1036.77,-397.89 1039.71,-404.25"/>
</g>
</g>
</svg>
